<?xml version="1.0" encoding="UTF-8" standalone="no"?>
<!-- Created with Inkscape (http://www.inkscape.org/) -->

<svg
   xmlns:dc="http://purl.org/dc/elements/1.1/"
   xmlns:cc="http://creativecommons.org/ns#"
   xmlns:rdf="http://www.w3.org/1999/02/22-rdf-syntax-ns#"
   xmlns:svg="http://www.w3.org/2000/svg"
   xmlns="http://www.w3.org/2000/svg"
   xmlns:sodipodi="http://sodipodi.sourceforge.net/DTD/sodipodi-0.dtd"
   xmlns:inkscape="http://www.inkscape.org/namespaces/inkscape"
   width="256"
   height="256"
   id="svg2"
   version="1.1"
   inkscape:version="0.48+devel r11817"
   sodipodi:docname="joy.svg">
  <defs
     id="defs4" />
  <sodipodi:namedview
     id="base"
     pagecolor="#ffffff"
     bordercolor="#666666"
     borderopacity="1.0"
     inkscape:pageopacity="0.0"
     inkscape:pageshadow="2"
     inkscape:zoom="1.979899"
     inkscape:cx="57.158621"
     inkscape:cy="179.21814"
     inkscape:document-units="px"
     inkscape:current-layer="layer1"
     showgrid="false"
     width="0px"
     height="0px"
     fit-margin-top="0"
     fit-margin-left="0"
     fit-margin-right="0"
     fit-margin-bottom="0"
     showguides="false"
     inkscape:guide-bbox="true"
     inkscape:snap-midpoints="false"
     inkscape:object-paths="true"
     inkscape:snap-bbox="true"
     inkscape:snap-bbox-edge-midpoints="true"
     inkscape:object-nodes="true"
     inkscape:snap-intersection-paths="true"
     inkscape:snap-smooth-nodes="true"
     inkscape:snap-global="true"
     inkscape:window-width="1618"
     inkscape:window-height="1028"
     inkscape:window-x="54"
     inkscape:window-y="-8"
     inkscape:window-maximized="1">
    <sodipodi:guide
       orientation="1,0"
       position="125,163.21429"
       id="guide3980" />
    <sodipodi:guide
       orientation="0,1"
       position="132.5,163.21429"
       id="guide3982" />
    <sodipodi:guide
       orientation="0,1"
       position="129.10714,96.964286"
       id="guide3984" />
    <sodipodi:guide
       orientation="1,0"
       position="178.83929,142.41071"
       id="guide4038" />
    <sodipodi:guide
       orientation="0,1"
       position="175.71429,134.19643"
       id="guide4040" />
  </sodipodi:namedview>
  <metadata
     id="metadata7">
    <rdf:RDF>
      <cc:Work
         rdf:about="">
        <dc:format>image/svg+xml</dc:format>
        <dc:type
           rdf:resource="http://purl.org/dc/dcmitype/StillImage" />
        <dc:title></dc:title>
      </cc:Work>
    </rdf:RDF>
  </metadata>
  <g
     inkscape:label="Layer 1"
     inkscape:groupmode="layer"
     id="layer1"
     transform="translate(0,-796.36218)">
    <rect
       style="fill:#ff0000;fill-opacity:1;stroke:none"
       id="rect4060"
       width="232"
       height="232.44701"
       x="12"
       y="807.91516"
       rx="24" />
    <path
       style="fill:#000000;fill-opacity:1;stroke:#000000;stroke-width:1px;stroke-linecap:butt;stroke-linejoin:miter;stroke-opacity:1"
       d="m 78.15625,868.23696 c -0.516985,0.001 -1.078342,0.0127 -1.65625,0.0312 -8.681812,0.27944 -10.657575,1.7787 -10.5,4.15625 -19.745244,2.06276 -27.282106,47.49357 -27.09375,65.75 0.339433,32.89952 6.415177,42.40182 20.96875,42.31252 17.499671,-0.1074 22.388974,-20.4959 27.5,-23.5625 0,0 3.991071,6.125 15.0625,6.125 11.07143,0 19.1875,-12.375 19.1875,-12.375 l 6.375,0 6.375,0 c 0,0 8.11607,12.375 19.1875,12.375 11.07143,0 15.0625,-6.125 15.0625,-6.125 5.11102,3.0666 10.00033,23.4551 27.5,23.5625 14.55357,0.089 20.62931,-9.413 20.96875,-42.31252 0.18835,-18.25643 -7.34851,-63.68724 -27.09375,-65.75 0.15757,-2.37755 -1.81819,-3.87681 -10.5,-4.15625 -0.57791,-0.0185 -1.13927,-0.0302 -1.65625,-0.0312 -3.6189,-0.009 -5.69531,0.54693 -5.8125,3.4375 -25.71428,1.42858 -17.43303,12.75 -28.0625,12.75 l -15.96875,0 -15.96875,0 c -10.62948,0 -2.34822,-11.32143 -28.0625,-12.75 C 83.851562,868.78384 81.775148,868.22752 78.15625,868.23696 z m 103.6875,25.21875 c 3.58985,0 6.5,2.91015 6.5,6.5 0,3.58985 -2.91015,6.5 -6.5,6.5 -3.58985,0 -6.5,-2.91015 -6.5,-6.5 C 175.34375,896.36586 178.2539,893.45571 181.84375,893.45571 z m -73.53125,5.09375 3.375,0 c 1.8282,0 3.3125,1.45305 3.3125,3.28125 l 0,0.40625 c 0,1.8282 -1.4843,3.3125 -3.3125,3.3125 l -3.375,0 c -1.8282,0 -3.3125,-1.4843 -3.3125,-3.3125 l 0,-0.40625 C 105,900.00251 106.4843,898.54946 108.3125,898.54946 z m 36,0 3.375,0 c 1.8282,0 3.3125,1.45305 3.3125,3.28125 l 0,0.40625 c 0,1.8282 -1.4843,3.3125 -3.3125,3.3125 l -3.375,0 c -1.8282,0 -3.3125,-1.4843 -3.3125,-3.3125 l 0,-0.40625 C 141,900.00251 142.4843,898.54946 144.3125,898.54946 z m -71.8125,0.0937 6,0 c 0.831,0 1.5,0.669 1.5,1.5 l 0,8 8,0 c 0.831,0 1.5,0.669 1.5,1.5 l 0,6 c 0,0.831 -0.669,1.5 -1.5,1.5 l -8,0 0,8 c 0,0.831 -0.669,1.5 -1.5,1.5 l -6,0 c -0.831,0 -1.5,-0.669 -1.5,-1.5 l 0,-8 -8,0 c -0.831,0 -1.5,-0.669 -1.5,-1.5 l 0,-6 c 0,-0.831 0.669,-1.5 1.5,-1.5 l 8,0 0,-8 C 71,899.31221 71.669,898.64321 72.5,898.64321 z m 95.75,8.40625 c 3.58985,0 6.5,2.91015 6.5,6.5 0,3.58985 -2.91015,6.5 -6.5,6.5 -3.58985,0 -6.5,-2.91015 -6.5,-6.5 C 161.75,909.95961 164.66015,907.04946 168.25,907.04946 z m 27.1875,0 c 3.58985,0 6.5,2.91015 6.5,6.5 0,3.58985 -2.91015,6.5 -6.5,6.5 -3.58985,0 -6.5,-2.91015 -6.5,-6.5 C 188.9375,909.95961 191.84765,907.04946 195.4375,907.04946 z m -83.59375,5.3125 3.40625,0 c 1.8282,0 3.28125,1.45305 3.28125,3.28125 l 0,0.40625 c 0,1.8282 -1.45305,3.3125 -3.28125,3.3125 l -3.40625,0 c -1.8282,0 -3.3125,-1.4843 -3.3125,-3.3125 l 0,-0.40625 C 108.53125,913.81501 110.01555,912.36196 111.84375,912.36196 z m 28.90625,0 3.40625,0 c 1.8282,0 3.3125,1.45305 3.3125,3.28125 l 0,0.40625 c 0,1.8282 -1.4843,3.3125 -3.3125,3.3125 l -3.40625,0 c -1.8282,0 -3.28125,-1.4843 -3.28125,-3.3125 l 0,-0.40625 C 137.46875,913.81501 138.9218,912.36196 140.75,912.36196 z m 41.09375,8.25 c 3.58985,0 6.5,2.91015 6.5,6.5 0,3.58985 -2.91015,6.5 -6.5,6.5 -3.58985,0 -6.5,-2.91015 -6.5,-6.5 C 175.34375,923.52211 178.2539,920.61196 181.84375,920.61196 z m -79.84375,8.5 c 7.73199,0 14,6.26801 14,14 0,7.73202 -6.26801,14.00002 -14,14.00002 -7.731987,0 -14,-6.268 -14,-14.00002 C 88,935.37997 94.268013,929.11196 102,929.11196 z m 52,0 c 7.73199,0 14,6.26801 14,14 0,7.73202 -6.26801,14.00002 -14,14.00002 -7.73199,0 -14,-6.268 -14,-14.00002 C 140,935.37997 146.26801,929.11196 154,929.11196 Z"
       id="path3978"
       inkscape:connector-curvature="0" />
  </g>
</svg>
