<?xml version="1.0" encoding="UTF-8" standalone="no"?>
<!-- Created with Inkscape (http://www.inkscape.org/) -->

<svg
   xmlns:dc="http://purl.org/dc/elements/1.1/"
   xmlns:cc="http://creativecommons.org/ns#"
   xmlns:rdf="http://www.w3.org/1999/02/22-rdf-syntax-ns#"
   xmlns:svg="http://www.w3.org/2000/svg"
   xmlns="http://www.w3.org/2000/svg"
   xmlns:sodipodi="http://sodipodi.sourceforge.net/DTD/sodipodi-0.dtd"
   xmlns:inkscape="http://www.inkscape.org/namespaces/inkscape"
   width="256"
   height="256"
   id="svg2"
   version="1.1"
   inkscape:version="0.48+devel r11817"
   sodipodi:docname="joy_icon.svg"
   inkscape:export-filename="D:\RCPRG\RCPRG-ros-pkg\elektron_kinectbot\elektron_core_apps\media\joy_icon.png"
   inkscape:export-xdpi="90"
   inkscape:export-ydpi="90">
  <defs
     id="defs4" />
  <sodipodi:namedview
     id="base"
     pagecolor="#ffffff"
     bordercolor="#666666"
     borderopacity="1.0"
     inkscape:pageopacity="0.0"
     inkscape:pageshadow="2"
     inkscape:zoom="1.979899"
     inkscape:cx="57.158621"
     inkscape:cy="179.21814"
     inkscape:document-units="px"
     inkscape:current-layer="layer1"
     showgrid="false"
     width="0px"
     height="0px"
     fit-margin-top="0"
     fit-margin-left="0"
     fit-margin-right="0"
     fit-margin-bottom="0"
     showguides="false"
     inkscape:guide-bbox="true"
     inkscape:snap-midpoints="false"
     inkscape:object-paths="true"
     inkscape:snap-bbox="true"
     inkscape:snap-bbox-edge-midpoints="true"
     inkscape:object-nodes="true"
     inkscape:snap-intersection-paths="true"
     inkscape:snap-smooth-nodes="true"
     inkscape:snap-global="true"
     inkscape:window-width="1618"
     inkscape:window-height="1028"
     inkscape:window-x="54"
     inkscape:window-y="-8"
     inkscape:window-maximized="1">
    <sodipodi:guide
       orientation="1,0"
       position="125,163.21429"
       id="guide3980" />
    <sodipodi:guide
       orientation="0,1"
       position="132.5,163.21429"
       id="guide3982" />
    <sodipodi:guide
       orientation="0,1"
       position="129.10714,96.964286"
       id="guide3984" />
    <sodipodi:guide
       orientation="1,0"
       position="178.83929,142.41071"
       id="guide4038" />
    <sodipodi:guide
       orientation="0,1"
       position="175.71429,134.19643"
       id="guide4040" />
  </sodipodi:namedview>
  <metadata
     id="metadata7">
    <rdf:RDF>
      <cc:Work
         rdf:about="">
        <dc:format>image/svg+xml</dc:format>
        <dc:type
           rdf:resource="http://purl.org/dc/dcmitype/StillImage" />
        <dc:title></dc:title>
      </cc:Work>
    </rdf:RDF>
  </metadata>
  <g
     inkscape:label="Layer 1"
     inkscape:groupmode="layer"
     id="layer1"
     transform="translate(0,-796.36218)">
    <path
       style="fill:#000000;fill-opacity:1;stroke:none"
       d="M 36 11.5625 C 22.704 11.5625 12 22.2665 12 35.5625 L 12 220 C 12 233.296 22.704 244 36 244 L 220 244 C 233.296 244 244 233.296 244 220 L 244 35.5625 C 244 22.2665 233.296 11.5625 220 11.5625 L 36 11.5625 z M 78.15625 71.875 C 81.775148 71.86556 83.851562 72.42188 83.96875 75.3125 C 109.68303 76.74107 101.40177 88.0625 112.03125 88.0625 L 128 88.0625 L 143.96875 88.0625 C 154.59822 88.0625 146.31697 76.74108 172.03125 75.3125 C 172.14844 72.42193 174.22485 71.866 177.84375 71.875 C 178.36073 71.876 178.92209 71.88775 179.5 71.90625 C 188.18181 72.18569 190.15757 73.68495 190 76.0625 C 209.74524 78.12526 217.2821 123.55607 217.09375 141.8125 C 216.75431 174.71202 210.67857 184.214 196.125 184.125 C 178.62533 184.0176 173.73602 163.6291 168.625 160.5625 C 168.625 160.5625 164.63393 166.6875 153.5625 166.6875 C 142.49107 166.6875 134.375 154.3125 134.375 154.3125 L 128 154.3125 L 121.625 154.3125 C 121.625 154.3125 113.50893 166.6875 102.4375 166.6875 C 91.366071 166.6875 87.375 160.5625 87.375 160.5625 C 82.263974 163.6291 77.374671 184.0176 59.875 184.125 C 45.321427 184.2143 39.245683 174.71202 38.90625 141.8125 C 38.717894 123.55607 46.254756 78.12526 66 76.0625 C 65.842425 73.68495 67.818188 72.18569 76.5 71.90625 C 77.077908 71.88775 77.639265 71.876 78.15625 71.875 z M 181.84375 97.09375 C 178.2539 97.09375 175.34375 100.0039 175.34375 103.59375 C 175.34375 107.1836 178.2539 110.09375 181.84375 110.09375 C 185.4336 110.09375 188.34375 107.1836 188.34375 103.59375 C 188.34375 100.0039 185.4336 97.09375 181.84375 97.09375 z M 108.3125 102.1875 C 106.4843 102.1875 105 103.64055 105 105.46875 L 105 105.875 C 105 107.7032 106.4843 109.1875 108.3125 109.1875 L 111.6875 109.1875 C 113.5157 109.1875 115 107.7032 115 105.875 L 115 105.46875 C 115 103.64055 113.5157 102.1875 111.6875 102.1875 L 108.3125 102.1875 z M 144.3125 102.1875 C 142.4843 102.1875 141 103.64055 141 105.46875 L 141 105.875 C 141 107.7032 142.4843 109.1875 144.3125 109.1875 L 147.6875 109.1875 C 149.5157 109.1875 151 107.7032 151 105.875 L 151 105.46875 C 151 103.64055 149.5157 102.1875 147.6875 102.1875 L 144.3125 102.1875 z M 72.5 102.28125 C 71.669 102.28125 71 102.9503 71 103.78125 L 71 111.78125 L 63 111.78125 C 62.169 111.78125 61.5 112.45025 61.5 113.28125 L 61.5 119.28125 C 61.5 120.11225 62.169 120.78125 63 120.78125 L 71 120.78125 L 71 128.78125 C 71 129.61225 71.669 130.28125 72.5 130.28125 L 78.5 130.28125 C 79.331 130.28125 80 129.61225 80 128.78125 L 80 120.78125 L 88 120.78125 C 88.831 120.78125 89.5 120.11225 89.5 119.28125 L 89.5 113.28125 C 89.5 112.45025 88.831 111.78125 88 111.78125 L 80 111.78125 L 80 103.78125 C 80 102.95025 79.331 102.28125 78.5 102.28125 L 72.5 102.28125 z M 168.25 110.6875 C 164.66015 110.6875 161.75 113.5977 161.75 117.1875 C 161.75 120.77735 164.66015 123.6875 168.25 123.6875 C 171.83985 123.6875 174.75 120.77735 174.75 117.1875 C 174.75 113.59765 171.83985 110.6875 168.25 110.6875 z M 195.4375 110.6875 C 191.84765 110.6875 188.9375 113.5977 188.9375 117.1875 C 188.9375 120.77735 191.84765 123.6875 195.4375 123.6875 C 199.02735 123.6875 201.9375 120.77735 201.9375 117.1875 C 201.9375 113.59765 199.02735 110.6875 195.4375 110.6875 z M 111.84375 116 C 110.01555 116 108.53125 117.4531 108.53125 119.28125 L 108.53125 119.6875 C 108.53125 121.5157 110.01555 123 111.84375 123 L 115.25 123 C 117.0782 123 118.53125 121.5157 118.53125 119.6875 L 118.53125 119.28125 C 118.53125 117.45305 117.0782 116 115.25 116 L 111.84375 116 z M 140.75 116 C 138.9218 116 137.46875 117.4531 137.46875 119.28125 L 137.46875 119.6875 C 137.46875 121.5157 138.9218 123 140.75 123 L 144.15625 123 C 145.98445 123 147.46875 121.5157 147.46875 119.6875 L 147.46875 119.28125 C 147.46875 117.45305 145.98445 116 144.15625 116 L 140.75 116 z M 181.84375 124.25 C 178.2539 124.25 175.34375 127.1602 175.34375 130.75 C 175.34375 134.33985 178.2539 137.25 181.84375 137.25 C 185.4336 137.25 188.34375 134.33985 188.34375 130.75 C 188.34375 127.16015 185.4336 124.25 181.84375 124.25 z M 102 132.75 C 94.268013 132.75 88 139.01806 88 146.75 C 88 154.48202 94.268013 160.75 102 160.75 C 109.73199 160.75 116 154.48202 116 146.75 C 116 139.01801 109.73199 132.75 102 132.75 z M 154 132.75 C 146.26801 132.75 140 139.01806 140 146.75 C 140 154.48202 146.26801 160.75 154 160.75 C 161.73199 160.75 168 154.48202 168 146.75 C 168 139.01801 161.73199 132.75 154 132.75 z "
       transform="translate(0,796.36218)"
       id="rect4060" />
  </g>
</svg>
