<?xml version="1.0" encoding="UTF-8" standalone="no"?>
<!-- Created with Inkscape (http://www.inkscape.org/) -->

<svg
   xmlns:dc="http://purl.org/dc/elements/1.1/"
   xmlns:cc="http://creativecommons.org/ns#"
   xmlns:rdf="http://www.w3.org/1999/02/22-rdf-syntax-ns#"
   xmlns:svg="http://www.w3.org/2000/svg"
   xmlns="http://www.w3.org/2000/svg"
   xmlns:sodipodi="http://sodipodi.sourceforge.net/DTD/sodipodi-0.dtd"
   xmlns:inkscape="http://www.inkscape.org/namespaces/inkscape"
   width="256"
   height="256"
   id="svg2"
   version="1.1"
   inkscape:version="0.48+devel r11817"
   sodipodi:docname="laser_avoid_icon.svg"
   inkscape:export-filename="D:\RCPRG\RCPRG-ros-pkg\elektron_kinectbot\elektron_core_apps\media\laser_avoid_icon.png"
   inkscape:export-xdpi="90"
   inkscape:export-ydpi="90">
  <defs
     id="defs4" />
  <sodipodi:namedview
     id="base"
     pagecolor="#ffffff"
     bordercolor="#666666"
     borderopacity="1.0"
     inkscape:pageopacity="0.0"
     inkscape:pageshadow="2"
     inkscape:zoom="1.979899"
     inkscape:cx="63.472074"
     inkscape:cy="172.14707"
     inkscape:document-units="px"
     inkscape:current-layer="layer1"
     showgrid="false"
     width="0px"
     height="0px"
     fit-margin-top="0"
     fit-margin-left="0"
     fit-margin-right="0"
     fit-margin-bottom="0"
     showguides="true"
     inkscape:guide-bbox="true"
     inkscape:snap-midpoints="false"
     inkscape:object-paths="true"
     inkscape:snap-bbox="true"
     inkscape:snap-bbox-edge-midpoints="true"
     inkscape:object-nodes="true"
     inkscape:snap-intersection-paths="true"
     inkscape:snap-smooth-nodes="true"
     inkscape:snap-global="false"
     inkscape:window-width="1618"
     inkscape:window-height="1028"
     inkscape:window-x="54"
     inkscape:window-y="-8"
     inkscape:window-maximized="1">
    <sodipodi:guide
       orientation="1,0"
       position="128,163.21429"
       id="guide3980"
       inkscape:label="" />
    <sodipodi:guide
       orientation="0,1"
       position="-18.687822,232"
       id="guide3982"
       inkscape:label="" />
    <sodipodi:guide
       orientation="0,1"
       position="129.10714,24"
       id="guide3984"
       inkscape:label="" />
    <sodipodi:guide
       orientation="1,0"
       position="232,142.41071"
       id="guide4038"
       inkscape:label="" />
    <sodipodi:guide
       orientation="0,1"
       position="175.71429,128"
       id="guide4040"
       inkscape:label="" />
    <sodipodi:guide
       orientation="1,0"
       position="24,50.002551"
       id="guide3971"
       inkscape:label="" />
  </sodipodi:namedview>
  <metadata
     id="metadata7">
    <rdf:RDF>
      <cc:Work
         rdf:about="">
        <dc:format>image/svg+xml</dc:format>
        <dc:type
           rdf:resource="http://purl.org/dc/dcmitype/StillImage" />
        <dc:title></dc:title>
      </cc:Work>
    </rdf:RDF>
  </metadata>
  <g
     inkscape:label="Layer 1"
     inkscape:groupmode="layer"
     id="layer1"
     transform="translate(0,-796.36218)"
     style="display:inline">
    <path
       style="fill:#000000;fill-opacity:1;stroke:none"
       d="M 36 11.5625 C 22.704 11.5625 12 22.2665 12 35.5625 L 12 220 C 12 233.296 22.704 244 36 244 L 220 244 C 233.296 244 244 233.296 244 220 L 244 35.5625 C 244 22.2665 233.296 11.5625 220 11.5625 L 36 11.5625 z M 28.15625 36.125 L 38.15625 36.3125 L 38.15625 36.46875 L 38.15625 36.53125 L 38.15625 39.65625 L 38.15625 39.71875 L 38.1875 42.75 L 38.1875 42.84375 L 38.28125 45.8125 L 38.28125 45.875 L 38.28125 45.96875 L 28.3125 46.4375 L 28.28125 46.28125 L 28.28125 46.21875 L 28.28125 46.1875 L 28.1875 43.0625 L 28.1875 43.03125 L 28.1875 42.96875 L 28.15625 39.78125 L 28.15625 39.75 L 28.15625 39.6875 L 28.15625 36.4375 L 28.15625 36.40625 L 28.15625 36.34375 L 28.15625 36.125 z M 38.96875 55.6875 L 39.125 57.3125 L 39.125 57.40625 L 39.46875 60.09375 L 39.8125 62.65625 L 39.84375 62.75 L 40.25 65.3125 L 30.375 66.875 L 29.9375 64.25 L 29.9375 64.1875 L 29.9375 64.15625 L 29.5625 61.40625 L 29.53125 61.34375 L 29.53125 61.3125 L 29.1875 58.5 L 29.1875 58.4375 L 29.1875 58.40625 L 29 56.6875 L 38.96875 55.6875 z M 87.46875 55.71875 L 143.5625 66.21875 L 134.25 115.875 L 78.15625 105.34375 L 87.46875 55.71875 z M 42.25 74.65625 L 42.3125 74.9375 L 42.3125 75 L 42.34375 75.0625 L 42.9375 77.21875 L 42.96875 77.34375 L 43.59375 79.4375 L 43.625 79.5625 L 44.3125 81.625 L 44.3125 81.65625 L 44.34375 81.71875 L 45.0625 83.78125 L 35.625 87.0625 L 34.84375 84.90625 L 34.84375 84.875 L 34.8125 84.8125 L 34.09375 82.53125 L 34.0625 82.46875 L 34.0625 82.40625 L 33.34375 80.09375 L 33.34375 80.03125 L 33.3125 79.96875 L 32.65625 77.59375 L 32.65625 77.53125 L 32.625 77.46875 L 32.53125 77.09375 L 42.25 74.65625 z M 48.71875 92.4375 L 49.28125 93.5625 L 49.3125 93.65625 L 50.21875 95.375 L 50.28125 95.5 L 51.21875 97.15625 L 51.28125 97.25 L 52.21875 98.875 L 52.28125 99 L 53.28125 100.5625 L 53.28125 100.59375 L 53.34375 100.6875 L 50.09375 102.6875 L 44.9375 106.09375 L 44.9375 106.0625 L 44.875 106.03125 L 44.84375 105.96875 L 43.75 104.1875 L 43.71875 104.125 L 43.6875 104.0625 L 42.59375 102.21875 L 42.5625 102.1875 L 42.53125 102.125 L 41.46875 100.25 L 41.4375 100.1875 L 41.40625 100.125 L 40.40625 98.1875 L 40.375 98.15625 L 40.34375 98.09375 L 39.75 96.84375 L 48.71875 92.4375 z M 58.9375 108.3125 L 58.96875 108.375 L 59.09375 108.5 L 59.125 108.5625 L 61.46875 111.28125 L 61.625 111.4375 L 64.09375 114.03125 L 64.1875 114.125 L 64.25 114.1875 L 65.25 115.15625 L 58.34375 122.375 L 57.1875 121.25 L 57.09375 121.15625 L 57.03125 121.09375 L 54.25 118.1875 L 54.15625 118.09375 L 54.09375 118 L 51.4375 114.9375 L 51.34375 114.84375 L 51.28125 114.75 L 51.09375 114.53125 L 58.9375 108.3125 z M 72.46875 121.4375 L 72.65625 121.59375 L 72.6875 121.625 L 72.8125 121.71875 L 75.71875 123.90625 L 75.875 124 L 78.90625 126.125 L 79.03125 126.21875 L 80.1875 126.96875 L 74.71875 135.34375 L 73.4375 134.5 L 73.375 134.46875 L 73.3125 134.40625 L 70 132.09375 L 69.9375 132.0625 L 69.875 132 L 66.65625 129.59375 L 66.59375 129.53125 L 66.5 129.46875 L 66.1875 129.21875 L 72.46875 121.4375 z M 88.5 132 L 88.96875 132.28125 L 89.09375 132.34375 L 92.53125 134.1875 L 92.625 134.25 L 96.125 136.0625 L 96.21875 136.09375 L 97.0625 136.5 L 92.65625 145.46875 L 91.71875 145.03125 L 91.6875 145 L 91.65625 145 L 87.9375 143.09375 L 87.90625 143.0625 L 87.84375 143.03125 L 84.21875 141.09375 L 84.15625 141.0625 L 84.125 141.03125 L 83.53125 140.6875 L 88.5 132 z M 105.96875 140.6875 L 107.375 141.34375 L 107.4375 141.375 L 115.0625 144.65625 L 111.09375 153.8125 L 103.40625 150.5 L 103.375 150.5 L 103.3125 150.46875 L 101.84375 149.8125 L 105.96875 140.6875 z M 124.1875 148.4375 L 133.46875 152.21875 L 129.65625 161.46875 L 120.40625 157.6875 L 124.1875 148.4375 z M 142.75 156.0625 L 147.78125 158.21875 L 147.8125 158.21875 L 147.84375 158.21875 L 151.96875 160.03125 L 152 160.0625 L 152.0625 160.09375 L 148.65625 167.5 L 147.9375 169.1875 L 147.90625 169.1875 L 147.875 169.15625 L 143.90625 167.40625 L 143.84375 167.375 L 138.84375 165.28125 L 142.75 156.0625 z M 161.25 164.34375 L 164.375 165.875 L 164.4375 165.90625 L 164.46875 165.9375 L 168.5 168 L 168.5625 168 L 168.59375 168.03125 L 170.34375 168.96875 L 165.59375 177.78125 L 163.9375 176.875 L 163.9375 176.90625 L 160 174.875 L 159.90625 174.84375 L 156.84375 173.34375 L 161.25 164.34375 z M 179.21875 174 L 180.6875 174.875 L 180.75 174.90625 L 180.8125 174.9375 L 184.6875 177.40625 L 184.75 177.4375 L 184.8125 177.46875 L 187.875 179.53125 L 182.3125 187.84375 L 179.34375 185.84375 L 179.21875 185.78125 L 175.5625 183.46875 L 175.46875 183.40625 L 174.09375 182.59375 L 179.21875 174 z M 196.1875 185.59375 L 196.375 185.71875 L 196.4375 185.78125 L 196.5 185.8125 L 200.125 188.78125 L 200.1875 188.84375 L 200.28125 188.90625 L 203.84375 192 L 203.90625 192.0625 L 203.96875 192.125 L 204.21875 192.375 L 197.40625 199.6875 L 197.28125 199.5625 L 197.15625 199.4375 L 193.84375 196.5625 L 193.6875 196.4375 L 190.3125 193.6875 L 190.1875 193.59375 L 190.15625 193.5625 L 196.1875 185.59375 z M 211.625 199.625 L 214.46875 202.6875 L 214.53125 202.75 L 214.59375 202.84375 L 217.84375 206.625 L 217.90625 206.6875 L 217.96875 206.75 L 218.46875 207.4375 L 210.625 213.625 L 210.21875 213.125 L 207.125 209.46875 L 207 209.34375 L 204.28125 206.40625 L 211.625 199.625 z M 224.6875 215.6875 L 225.8125 217.34375 L 225.84375 217.375 L 225.875 217.40625 L 227.3125 219.625 L 227.34375 219.65625 L 227.375 219.71875 L 228.78125 221.96875 L 228.8125 222.03125 L 228.84375 222.0625 L 230.21875 224.375 L 221.65625 229.53125 L 220.3125 227.28125 L 220.25 227.21875 L 218.9375 225.09375 L 218.90625 225.03125 L 217.5625 222.96875 L 217.5 222.90625 L 216.4375 221.34375 L 224.6875 215.6875 z "
       transform="translate(0,796.36218)"
       id="rect4060" />
  </g>
  <g
     inkscape:groupmode="layer"
     id="layer2"
     inkscape:label="Layer 2"
     style="display:inline" />
</svg>
